REM DIRINDEX 1\2,1\4,1\5,1\6,1\7,1\3\8,1\3\9,1\3\10
REM DIRNAME folder01,folder02,folder03,folder04,folder05,folder06,folder07,folder08,folder09,folder10
TITLE ""
FILE "DB4500_5th_1A_06.mp3" MP3
  TRACK 01 AUDIO
    TITLE "8:cjc113_0279"
    INDEX 01 00:00:00
  TRACK 02 AUDIO
    TITLE "0:"
    INDEX 01 00:01:17
  TRACK 03 AUDIO
    TITLE "9:cjc113_0280"
    INDEX 01 00:01:40
  TRACK 04 AUDIO
    TITLE "0:"
    INDEX 01 00:02:63
  TRACK 05 AUDIO
    TITLE "10:cjc113_0281"
    INDEX 01 00:03:10
  TRACK 06 AUDIO
    TITLE "0:"
    INDEX 01 00:06:37
  TRACK 07 AUDIO
    TITLE "8:cjc113_0282"
    INDEX 01 00:07:09
  TRACK 08 AUDIO
    TITLE "0:"
    INDEX 01 00:08:17
  TRACK 09 AUDIO
    TITLE "9:cjc113_0283"
    INDEX 01 00:08:40
  TRACK 10 AUDIO
    TITLE "0:"
    INDEX 01 00:09:53
  TRACK 11 AUDIO
    TITLE "10:cjc113_0284"
    INDEX 01 00:10:00
  TRACK 12 AUDIO
    TITLE "0:"
    INDEX 01 00:14:29
  TRACK 13 AUDIO
    TITLE "8:cjc113_0285"
    INDEX 01 00:14:74
  TRACK 14 AUDIO
    TITLE "0:"
    INDEX 01 00:16:00
  TRACK 15 AUDIO
    TITLE "9:cjc113_0286"
    INDEX 01 00:16:20
  TRACK 16 AUDIO
    TITLE "0:"
    INDEX 01 00:17:35
  TRACK 17 AUDIO
    TITLE "10:cjc113_0287"
    INDEX 01 00:17:55
  TRACK 18 AUDIO
    TITLE "0:"
    INDEX 01 00:21:23
  TRACK 19 AUDIO
    TITLE "8:cjc113_0288"
    INDEX 01 00:21:68
  TRACK 20 AUDIO
    TITLE "0:"
    INDEX 01 00:23:18
  TRACK 21 AUDIO
    TITLE "9:cjc113_0289"
    INDEX 01 00:23:34
  TRACK 22 AUDIO
    TITLE "0:"
    INDEX 01 00:25:01
  TRACK 23 AUDIO
    TITLE "10:cjc113_0290"
    INDEX 01 00:25:25
  TRACK 24 AUDIO
    TITLE "0:"
    INDEX 01 00:28:02
  TRACK 25 AUDIO
    TITLE "8:cjc113_0291"
    INDEX 01 00:28:47
  TRACK 26 AUDIO
    TITLE "0:"
    INDEX 01 00:29:58
  TRACK 27 AUDIO
    TITLE "9:cjc113_0292"
    INDEX 01 00:30:05
  TRACK 28 AUDIO
    TITLE "0:"
    INDEX 01 00:31:33
  TRACK 29 AUDIO
    TITLE "10:cjc113_0293"
    INDEX 01 00:31:57
  TRACK 30 AUDIO
    TITLE "0:"
    INDEX 01 00:35:63
  TRACK 31 AUDIO
    TITLE "8:cjc113_0294"
    INDEX 01 00:36:31
  TRACK 32 AUDIO
    TITLE "0:"
    INDEX 01 00:37:46
  TRACK 33 AUDIO
    TITLE "9:cjc113_0295"
    INDEX 01 00:37:67
  TRACK 34 AUDIO
    TITLE "0:"
    INDEX 01 00:39:23
  TRACK 35 AUDIO
    TITLE "10:cjc113_0296"
    INDEX 01 00:39:45
  TRACK 36 AUDIO
    TITLE "0:"
    INDEX 01 00:43:40
  TRACK 37 AUDIO
    TITLE "8:cjc113_0297"
    INDEX 01 00:44:11
  TRACK 38 AUDIO
    TITLE "0:"
    INDEX 01 00:45:55
  TRACK 39 AUDIO
    TITLE "9:cjc113_0298"
    INDEX 01 00:45:73
  TRACK 40 AUDIO
    TITLE "0:"
    INDEX 01 00:47:36
  TRACK 41 AUDIO
    TITLE "10:cjc113_0299"
    INDEX 01 00:47:54
  TRACK 42 AUDIO
    TITLE "0:"
    INDEX 01 00:50:52
  TRACK 43 AUDIO
    TITLE "8:cjc113_0300"
    INDEX 01 00:51:22
  TRACK 44 AUDIO
    TITLE "0:"
    INDEX 01 00:52:32
  TRACK 45 AUDIO
    TITLE "9:cjc113_0301"
    INDEX 01 00:52:47
  TRACK 46 AUDIO
    TITLE "0:"
    INDEX 01 00:54:21
  TRACK 47 AUDIO
    TITLE "10:cjc113_0302"
    INDEX 01 00:54:42
  TRACK 48 AUDIO
    TITLE "0:"
    INDEX 01 00:57:52
  TRACK 49 AUDIO
    TITLE "8:cjc113_0303"
    INDEX 01 00:58:24
  TRACK 50 AUDIO
    TITLE "0:"
    INDEX 01 00:59:45
  TRACK 51 AUDIO
    TITLE "9:cjc113_0304"
    INDEX 01 00:59:65
  TRACK 52 AUDIO
    TITLE "0:"
    INDEX 01 01:01:36
  TRACK 53 AUDIO
    TITLE "10:cjc113_0305"
    INDEX 01 01:01:60
  TRACK 54 AUDIO
    TITLE "0:"
    INDEX 01 01:06:12
  TRACK 55 AUDIO
    TITLE "8:cjc113_0306"
    INDEX 01 01:06:55
  TRACK 56 AUDIO
    TITLE "0:"
    INDEX 01 01:08:01
  TRACK 57 AUDIO
    TITLE "9:cjc113_0307"
    INDEX 01 01:08:25
  TRACK 58 AUDIO
    TITLE "0:"
    INDEX 01 01:09:71
  TRACK 59 AUDIO
    TITLE "10:cjc113_0308"
    INDEX 01 01:10:16
  TRACK 60 AUDIO
    TITLE "0:"
    INDEX 01 01:14:59
  TRACK 61 AUDIO
    TITLE "8:cjc113_0309"
    INDEX 01 01:15:35
  TRACK 62 AUDIO
    TITLE "0:"
    INDEX 01 01:16:44
  TRACK 63 AUDIO
    TITLE "9:cjc113_0310"
    INDEX 01 01:16:61
  TRACK 64 AUDIO
    TITLE "0:"
    INDEX 01 01:18:62
  TRACK 65 AUDIO
    TITLE "10:cjc113_0311"
    INDEX 01 01:19:07
  TRACK 66 AUDIO
    TITLE "0:"
    INDEX 01 01:21:37
  TRACK 67 AUDIO
    TITLE "10:cjc113_0312"
    INDEX 01 01:22:01
  TRACK 68 AUDIO
    TITLE "0:"
    INDEX 01 01:24:02
